<svg xmlns="http://www.w3.org/2000/svg" xmlns:xlink="http://www.w3.org/1999/xlink" contentStyleType="text/css" height="499px" preserveAspectRatio="none" style="width:660px;height:499px;background:#FFFFFF;" version="1.1" viewBox="0 0 660 499" width="660px" zoomAndPan="magnify"><defs/><g><line style="stroke:#181818;stroke-width:0.5;stroke-dasharray:5.0,5.0;" x1="32" x2="32" y1="36.2969" y2="464.1563"/><line style="stroke:#181818;stroke-width:0.5;stroke-dasharray:5.0,5.0;" x1="623.2285" x2="623.2285" y1="36.2969" y2="464.1563"/><rect fill="#E2E2F0" height="30.2969" rx="2.5" ry="2.5" style="stroke:#181818;stroke-width:0.5;" width="54.5303" x="5" y="5"/><text fill="#000000" font-family="sans-serif" font-size="14" lengthAdjust="spacing" textLength="40.5303" x="12" y="24.9951">Client</text><rect fill="#E2E2F0" height="30.2969" rx="2.5" ry="2.5" style="stroke:#181818;stroke-width:0.5;" width="54.5303" x="5" y="463.1563"/><text fill="#000000" font-family="sans-serif" font-size="14" lengthAdjust="spacing" textLength="40.5303" x="12" y="483.1514">Client</text><rect fill="#E2E2F0" height="30.2969" rx="2.5" ry="2.5" style="stroke:#181818;stroke-width:0.5;" width="59.9102" x="594.2285" y="5"/><text fill="#000000" font-family="sans-serif" font-size="14" lengthAdjust="spacing" textLength="45.9102" x="601.2285" y="24.9951">Server</text><rect fill="#E2E2F0" height="30.2969" rx="2.5" ry="2.5" style="stroke:#181818;stroke-width:0.5;" width="59.9102" x="594.2285" y="463.1563"/><text fill="#000000" font-family="sans-serif" font-size="14" lengthAdjust="spacing" textLength="45.9102" x="601.2285" y="483.1514">Server</text><polygon fill="#181818" points="612.1836,63.4297,622.1836,67.4297,612.1836,71.4297,616.1836,67.4297" style="stroke:#181818;stroke-width:1.0;"/><line style="stroke:#181818;stroke-width:1.0;" x1="32.2651" x2="618.1836" y1="67.4297" y2="67.4297"/><text fill="#000000" font-family="sans-serif" font-size="13" lengthAdjust="spacing" textLength="143.5713" x="39.2651" y="62.3638">GET /ws?token=token</text><polygon fill="#181818" points="43.2651,92.5625,33.2651,96.5625,43.2651,100.5625,39.2651,96.5625" style="stroke:#181818;stroke-width:1.0;"/><line style="stroke:#181818;stroke-width:1.0;" x1="37.2651" x2="623.1836" y1="96.5625" y2="96.5625"/><text fill="#000000" font-family="sans-serif" font-size="13" lengthAdjust="spacing" textLength="227.5444" x="49.2651" y="91.4966">WebSocket connection established</text><polygon fill="#181818" points="612.1836,121.6953,622.1836,125.6953,612.1836,129.6953,616.1836,125.6953" style="stroke:#181818;stroke-width:1.0;"/><line style="stroke:#181818;stroke-width:1.0;" x1="32.2651" x2="618.1836" y1="125.6953" y2="125.6953"/><text fill="#000000" font-family="sans-serif" font-size="13" lengthAdjust="spacing" textLength="567.9185" x="39.2651" y="120.6294">{"type": "system", "payload": {"type": "open_chat_existing", "chatId": "chat_uuid_1"}}</text><polygon fill="#181818" points="43.2651,150.8281,33.2651,154.8281,43.2651,158.8281,39.2651,154.8281" style="stroke:#181818;stroke-width:1.0;"/><line style="stroke:#181818;stroke-width:1.0;" x1="37.2651" x2="623.1836" y1="154.8281" y2="154.8281"/><text fill="#000000" font-family="sans-serif" font-size="13" lengthAdjust="spacing" textLength="304.7002" x="49.2651" y="149.7622">{"type": "chat_open", "chatId": "chat_uuid_1"}</text><polygon fill="#181818" points="612.1836,179.9609,622.1836,183.9609,612.1836,187.9609,616.1836,183.9609" style="stroke:#181818;stroke-width:1.0;"/><line style="stroke:#181818;stroke-width:1.0;" x1="32.2651" x2="618.1836" y1="183.9609" y2="183.9609"/><text fill="#000000" font-family="sans-serif" font-size="13" lengthAdjust="spacing" textLength="567.9185" x="39.2651" y="178.895">{"type": "system", "payload": {"type": "open_chat_existing", "chatId": "chat_uuid_2"}}</text><polygon fill="#181818" points="43.2651,209.0938,33.2651,213.0938,43.2651,217.0938,39.2651,213.0938" style="stroke:#181818;stroke-width:1.0;"/><line style="stroke:#181818;stroke-width:1.0;" x1="37.2651" x2="623.1836" y1="213.0938" y2="213.0938"/><text fill="#000000" font-family="sans-serif" font-size="13" lengthAdjust="spacing" textLength="304.7002" x="49.2651" y="208.0278">{"type": "chat_open", "chatId": "chat_uuid_1"}</text><polygon fill="#181818" points="612.1836,238.2266,622.1836,242.2266,612.1836,246.2266,616.1836,242.2266" style="stroke:#181818;stroke-width:1.0;"/><line style="stroke:#181818;stroke-width:1.0;" x1="32.2651" x2="618.1836" y1="242.2266" y2="242.2266"/><text fill="#000000" font-family="sans-serif" font-size="13" lengthAdjust="spacing" textLength="351.8887" x="39.2651" y="237.1606">{"type": "system", "payload": {"type": "chat_close"}}</text><polygon fill="#181818" points="43.2651,267.3594,33.2651,271.3594,43.2651,275.3594,39.2651,271.3594" style="stroke:#181818;stroke-width:1.0;"/><line style="stroke:#181818;stroke-width:1.0;" x1="37.2651" x2="623.1836" y1="271.3594" y2="271.3594"/><text fill="#000000" font-family="sans-serif" font-size="13" lengthAdjust="spacing" textLength="154.6987" x="49.2651" y="266.2935">{"type": "chat_closed"}</text><polygon fill="#181818" points="612.1836,296.4922,622.1836,300.4922,612.1836,304.4922,616.1836,300.4922" style="stroke:#181818;stroke-width:1.0;"/><line style="stroke:#181818;stroke-width:1.0;" x1="32.2651" x2="618.1836" y1="300.4922" y2="300.4922"/><text fill="#000000" font-family="sans-serif" font-size="13" lengthAdjust="spacing" textLength="567.9185" x="39.2651" y="295.4263">{"type": "system", "payload": {"type": "open_chat_existing", "chatId": "chat_uuid_2"}}</text><polygon fill="#181818" points="43.2651,325.625,33.2651,329.625,43.2651,333.625,39.2651,329.625" style="stroke:#181818;stroke-width:1.0;"/><line style="stroke:#181818;stroke-width:1.0;" x1="37.2651" x2="623.1836" y1="329.625" y2="329.625"/><text fill="#000000" font-family="sans-serif" font-size="13" lengthAdjust="spacing" textLength="304.7002" x="49.2651" y="324.5591">{"type": "chat_open", "chatId": "chat_uuid_2"}</text><polygon fill="#181818" points="612.1836,354.7578,622.1836,358.7578,612.1836,362.7578,616.1836,358.7578" style="stroke:#181818;stroke-width:1.0;"/><line style="stroke:#181818;stroke-width:1.0;" x1="32.2651" x2="618.1836" y1="358.7578" y2="358.7578"/><text fill="#000000" font-family="sans-serif" font-size="13" lengthAdjust="spacing" textLength="546.9458" x="39.2651" y="353.6919">{"type": "system", "payload": {"type": "open_chat_new", "agentId": "agent_uuid"}}</text><polygon fill="#181818" points="43.2651,383.8906,33.2651,387.8906,43.2651,391.8906,39.2651,387.8906" style="stroke:#181818;stroke-width:1.0;"/><line style="stroke:#181818;stroke-width:1.0;" x1="37.2651" x2="623.1836" y1="387.8906" y2="387.8906"/><text fill="#000000" font-family="sans-serif" font-size="13" lengthAdjust="spacing" textLength="323.2988" x="49.2651" y="382.8247">{"type": "chat_open", "chatId": "chat_uuid_new"}</text><polygon fill="#181818" points="612.1836,413.0234,622.1836,417.0234,612.1836,421.0234,616.1836,417.0234" style="stroke:#181818;stroke-width:1.0;"/><line style="stroke:#181818;stroke-width:1.0;" x1="32.2651" x2="618.1836" y1="417.0234" y2="417.0234"/><text fill="#000000" font-family="sans-serif" font-size="13" lengthAdjust="spacing" textLength="351.8887" x="39.2651" y="411.9575">{"type": "system", "payload": {"type": "chat_close"}}</text><polygon fill="#181818" points="43.2651,442.1563,33.2651,446.1563,43.2651,450.1563,39.2651,446.1563" style="stroke:#181818;stroke-width:1.0;"/><line style="stroke:#181818;stroke-width:1.0;" x1="37.2651" x2="623.1836" y1="446.1563" y2="446.1563"/><text fill="#000000" font-family="sans-serif" font-size="13" lengthAdjust="spacing" textLength="154.6987" x="49.2651" y="441.0903">{"type": "chat_closed"}</text><!--SRC=[rP712i8m38RlUuhGioBkE50F8k9vWiTHkp2BCorhfWxntRMTe8SXWg9uAI7v-FAJMbcnLjfAOfYM6eaZ-z1AiTfZ5RKJw8zlZGJcioKC3cx2Peiq2c_KpZpLyWciS9qQjKK6POXGiJO4w5YkI-qsc7U8Ju8RYo81uHh7k1Cz45OsfP6vU9mQYvIfZUGCZzgnfiAJlh7mOAYokjPvDXJdSqUskogWtlV4y9MayO-J1eygZSENWWGo_vlRn1zAIdZma2okfdP7ACEIjqDw-G- -y080]--></g></svg>