<svg xmlns="http://www.w3.org/2000/svg" xmlns:xlink="http://www.w3.org/1999/xlink" contentStyleType="text/css" height="482px" preserveAspectRatio="none" style="width:912px;height:482px;background:#FFFFFF;" version="1.1" viewBox="0 0 912 482" width="912px" zoomAndPan="magnify"><defs/><g><ellipse cx="436.44" cy="16" fill="#222222" rx="10" ry="10" style="stroke:#222222;stroke-width:1.0;"/><rect fill="#F1F1F1" height="40" rx="12.5" ry="12.5" style="stroke:#181818;stroke-width:0.5;" width="104.8418" x="384.02" y="103"/><text fill="#000000" font-family="sans-serif" font-size="14" lengthAdjust="spacing" textLength="94.8418" x="389.02" y="127.8467">Not_Assigned</text><ellipse cx="284.44" cy="465" fill="none" rx="11" ry="11" style="stroke:#222222;stroke-width:1.0;"/><ellipse cx="284.44" cy="465" fill="#222222" rx="6" ry="6" style="stroke:#222222;stroke-width:1.0;"/><rect fill="#F1F1F1" height="40" rx="12.5" ry="12.5" style="stroke:#181818;stroke-width:0.5;" width="58.624" x="153.13" y="220"/><text fill="#000000" font-family="sans-serif" font-size="14" lengthAdjust="spacing" textLength="48.624" x="158.13" y="244.8467">Chat_1</text><rect fill="#F1F1F1" height="40" rx="12.5" ry="12.5" style="stroke:#181818;stroke-width:0.5;" width="58.624" x="412.13" y="220"/><text fill="#000000" font-family="sans-serif" font-size="14" lengthAdjust="spacing" textLength="48.624" x="417.13" y="244.8467">Chat_2</text><rect fill="#F1F1F1" height="40" rx="12.5" ry="12.5" style="stroke:#181818;stroke-width:0.5;" width="80.2529" x="549.32" y="337"/><text fill="#000000" font-family="sans-serif" font-size="14" lengthAdjust="spacing" textLength="70.2529" x="554.32" y="361.8467">Chat_New</text><!--link *start* to Not_Assigned--><g id="link_*start*_Not_Assigned"><path d="M436.44,26.32 C436.44,43.38 436.44,73.98 436.44,96.64 " fill="none" id="*start*-to-Not_Assigned" style="stroke:#181818;stroke-width:1.0;"/><polygon fill="#181818" points="436.44,102.64,440.44,93.64,436.44,97.64,432.44,93.64,436.44,102.64" style="stroke:#181818;stroke-width:1.0;"/><text fill="#000000" font-family="sans-serif" font-size="13" lengthAdjust="spacing" textLength="132.0186" x="437.44" y="69.0669">Open ws connection</text></g><!--link Not_Assigned to *end*--><g id="link_Not_Assigned_*end*"><path d="M383.52,124.18 C326.36,126.44 234.12,136.18 164.44,173 C99.98,207.07 77.06,222.52 49.44,290 C6,396.18 216.5496,449.2131 267.8696,460.4831 " fill="none" id="Not_Assigned-to-*end*" style="stroke:#181818;stroke-width:1.0;"/><polygon fill="#181818" points="273.73,461.77,265.7974,455.9327,268.8464,460.6975,264.0815,463.7465,273.73,461.77" style="stroke:#181818;stroke-width:1.0;"/><text fill="#000000" font-family="sans-serif" font-size="13" lengthAdjust="spacing" textLength="128.4258" x="50.44" y="303.0669">Disconnect from ws</text></g><!--link Not_Assigned to Chat_1--><g id="link_Not_Assigned_Chat_1"><path d="M383.79,137.29 C353.91,145.73 316.26,157.9 284.44,173 C257,186.02 233.0341,201.781 213.0441,216.131 " fill="none" id="Not_Assigned-to-Chat_1" style="stroke:#181818;stroke-width:1.0;"/><polygon fill="#181818" points="208.17,219.63,217.8139,217.631,212.2318,216.7142,213.1486,211.1321,208.17,219.63" style="stroke:#181818;stroke-width:1.0;"/><text fill="#000000" font-family="sans-serif" font-size="13" lengthAdjust="spacing" textLength="135.1162" x="285.44" y="186.0669">Open existing chat 1</text></g><!--link Chat_1 to Not_Assigned--><g id="link_Chat_1_Not_Assigned"><path d="M174.85,219.77 C170.52,205.29 167.83,185.82 178.44,173 C203.99,142.14 310.0717,130.9339 377.8217,126.7039 " fill="none" id="Chat_1-to-Not_Assigned" style="stroke:#181818;stroke-width:1.0;"/><polygon fill="#181818" points="383.81,126.33,374.5782,122.8986,378.8197,126.6416,375.0767,130.8831,383.81,126.33" style="stroke:#181818;stroke-width:1.0;"/><text fill="#000000" font-family="sans-serif" font-size="13" lengthAdjust="spacing" textLength="67.9961" x="179.44" y="186.0669">Close chat</text></g><!--link Not_Assigned to Chat_2--><g id="link_Not_Assigned_Chat_2"><path d="M477.69,143.42 C489.09,150.95 500.07,160.76 506.44,173 C517.66,194.54 498.2983,210.7586 476.2083,222.7986 " fill="none" id="Not_Assigned-to-Chat_2" style="stroke:#181818;stroke-width:1.0;"/><polygon fill="#181818" points="470.94,225.67,480.7567,224.875,475.3302,223.2771,476.9281,217.8506,470.94,225.67" style="stroke:#181818;stroke-width:1.0;"/><text fill="#000000" font-family="sans-serif" font-size="13" lengthAdjust="spacing" textLength="135.1162" x="509.44" y="186.0669">Open existing chat 2</text></g><!--link Chat_2 to Not_Assigned--><g id="link_Chat_2_Not_Assigned"><path d="M435.57,219.65 C433.15,210.71 430.64,199.91 429.44,190 C427.55,174.33 428.6135,162.4326 431.0135,149.2726 " fill="none" id="Chat_2-to-Not_Assigned" style="stroke:#181818;stroke-width:1.0;"/><polygon fill="#181818" points="432.09,143.37,426.5402,151.5063,431.1929,148.2889,434.4104,152.9416,432.09,143.37" style="stroke:#181818;stroke-width:1.0;"/><text fill="#000000" font-family="sans-serif" font-size="13" lengthAdjust="spacing" textLength="67.9961" x="430.44" y="186.0669">Close chat</text></g><!--link Not_Assigned to Chat_New--><g id="link_Not_Assigned_Chat_New"><path d="M489.28,123.81 C550.52,125.57 653.08,134.7 731.44,173 C759.14,186.53 770.07,191.77 782.44,220 C813.34,290.49 700.9279,329.263 635.6879,345.713 " fill="none" id="Not_Assigned-to-Chat_New" style="stroke:#181818;stroke-width:1.0;"/><polygon fill="#181818" points="629.87,347.18,639.5748,348.8582,634.7183,345.9575,637.6189,341.101,629.87,347.18" style="stroke:#181818;stroke-width:1.0;"/><text fill="#000000" font-family="sans-serif" font-size="13" lengthAdjust="spacing" textLength="98.3062" x="788.44" y="244.5669">Open new chat</text></g><!--link Chat_New to Not_Assigned--><g id="link_Chat_New_Not_Assigned"><path d="M629.85,340.19 C644.05,332.45 658.44,321.58 666.44,307 C695.24,254.55 693.33,217.6 653.44,173 C631.98,149 552.3713,136.1501 495.3113,129.6401 " fill="none" id="Chat_New-to-Not_Assigned" style="stroke:#181818;stroke-width:1.0;"/><polygon fill="#181818" points="489.35,128.96,497.8386,133.9544,494.3178,129.5268,498.7454,126.006,489.35,128.96" style="stroke:#181818;stroke-width:1.0;"/><text fill="#000000" font-family="sans-serif" font-size="13" lengthAdjust="spacing" textLength="67.9961" x="686.44" y="244.5669">Close chat</text></g><!--link Chat_1 to Chat_1--><g id="link_Chat_1_Chat_1"><path d="M212.21,229.72 C230.01,227.43 246.76,230.86 246.76,240 C246.76,249.14 235.961,253.3356 218.161,251.0456 " fill="none" id="Chat_1-to-Chat_1" style="stroke:#181818;stroke-width:1.0;"/><polygon fill="#181818" points="212.21,250.28,220.626,255.3957,217.1691,250.918,221.6468,247.4611,212.21,250.28" style="stroke:#181818;stroke-width:1.0;"/><text fill="#000000" font-family="sans-serif" font-size="13" lengthAdjust="spacing" textLength="135.1162" x="252.76" y="244.5669">Open existing chat 2</text></g><!--link Chat_1 to Chat_New--><g id="link_Chat_1_Chat_New"><path d="M212.01,249.34 C271.03,265.98 407.65,304.52 522.44,337 C531.05,339.44 534.5076,340.413 543.2876,342.903 " fill="none" id="Chat_1-to-Chat_New" style="stroke:#181818;stroke-width:1.0;"/><polygon fill="#181818" points="549.06,344.54,541.4928,338.2362,544.2497,343.1758,539.3101,345.9327,549.06,344.54" style="stroke:#181818;stroke-width:1.0;"/><text fill="#000000" font-family="sans-serif" font-size="13" lengthAdjust="spacing" textLength="98.3062" x="411.44" y="303.0669">Open new chat</text></g><!--link Chat_1 to *end*--><g id="link_Chat_1_*end*"><path d="M183.63,260.43 C185.94,287.72 192.59,338.38 211.44,377 C228.22,411.37 257.0264,439.6004 272.1664,453.2004 " fill="none" id="Chat_1-to-*end*" style="stroke:#181818;stroke-width:1.0;"/><polygon fill="#181818" points="276.63,457.21,272.6077,448.22,272.9104,453.8687,267.2616,454.1714,276.63,457.21" style="stroke:#181818;stroke-width:1.0;"/><text fill="#000000" font-family="sans-serif" font-size="13" lengthAdjust="spacing" textLength="128.4258" x="212.44" y="361.5669">Disconnect from ws</text></g><!--link Chat_2 to Chat_2--><g id="link_Chat_2_Chat_2"><path d="M471.21,229.72 C489.01,227.43 505.76,230.86 505.76,240 C505.76,249.14 494.961,253.3356 477.161,251.0456 " fill="none" id="Chat_2-to-Chat_2" style="stroke:#181818;stroke-width:1.0;"/><polygon fill="#181818" points="471.21,250.28,479.626,255.3957,476.1691,250.918,480.6468,247.4611,471.21,250.28" style="stroke:#181818;stroke-width:1.0;"/><text fill="#000000" font-family="sans-serif" font-size="13" lengthAdjust="spacing" textLength="135.1162" x="511.76" y="244.5669">Open existing chat 1</text></g><!--link Chat_2 to Chat_New--><g id="link_Chat_2_Chat_New"><path d="M471.01,250.57 C492.73,258.64 522.05,271.8 543.44,290 C558.76,303.03 568.4424,317.0696 576.5724,331.4196 " fill="none" id="Chat_2-to-Chat_New" style="stroke:#181818;stroke-width:1.0;"/><polygon fill="#181818" points="579.53,336.64,578.5738,326.8377,577.0653,332.2897,571.6133,330.7812,579.53,336.64" style="stroke:#181818;stroke-width:1.0;"/><text fill="#000000" font-family="sans-serif" font-size="13" lengthAdjust="spacing" textLength="98.3062" x="559.44" y="303.0669">Open new chat</text></g><!--link Chat_2 to *end*--><g id="link_Chat_2_*end*"><path d="M427.78,260.05 C421.29,269.11 413.45,280.1 406.44,290 C403.5,294.16 318.1634,415.8965 293.9434,450.4565 " fill="none" id="Chat_2-to-*end*" style="stroke:#181818;stroke-width:1.0;"/><polygon fill="#181818" points="290.5,455.37,298.9408,450.2953,293.3695,451.2754,292.3895,445.7041,290.5,455.37" style="stroke:#181818;stroke-width:1.0;"/><text fill="#000000" font-family="sans-serif" font-size="13" lengthAdjust="spacing" textLength="128.4258" x="374.44" y="361.5669">Disconnect from ws</text></g><!--link Chat_New to Chat_New--><g id="link_Chat_New_Chat_New"><path d="M630.02,346.22 C648.5,345.12 664.57,348.72 664.57,357 C664.57,365.28 654.4894,369.2365 636.0094,368.1365 " fill="none" id="Chat_New-to-Chat_New" style="stroke:#181818;stroke-width:1.0;"/><polygon fill="#181818" points="630.02,367.78,638.7664,372.3077,635.0112,368.0771,639.2418,364.3218,630.02,367.78" style="stroke:#181818;stroke-width:1.0;"/><text fill="#000000" font-family="sans-serif" font-size="13" lengthAdjust="spacing" textLength="229.2837" x="670.57" y="361.5669">Open new chat, Open existing chat</text></g><!--link Chat_New to *end*--><g id="link_Chat_New_*end*"><path d="M549.11,373.47 C512.96,387.2 458.38,407.56 410.44,424 C367.89,438.59 322.3838,452.5555 300.6938,459.1055 " fill="none" id="Chat_New-to-*end*" style="stroke:#181818;stroke-width:1.0;"/><polygon fill="#181818" points="294.95,460.84,304.7221,462.0674,299.7365,459.3946,302.4094,454.409,294.95,460.84" style="stroke:#181818;stroke-width:1.0;"/><text fill="#000000" font-family="sans-serif" font-size="13" lengthAdjust="spacing" textLength="128.4258" x="456.44" y="420.0669">Disconnect from ws</text></g><!--SRC=[ZT312eCm30RWUvyYvp4FzkX16Exi7c28Z9ffOAPY2svllrA5ETSEh-LB_h_fg470Vh0lQD2eaGPBciNrK46Iv51gMv-CePQnoU0o8CDaG6bcL1wAjV0ZRZI3Cva5mNtKlHlQm1oAxcRhT5cAJpAMk0NbNY4DOnd4CenBd1REE7afn1mP-5Znq0Pdj39_6ieV5yXRaTXHPYDtL9AVA1avsjR5AiaTbTpiZb9UHTEEWPhVsoCTtW00]--></g></svg>