<svg xmlns="http://www.w3.org/2000/svg" xmlns:xlink="http://www.w3.org/1999/xlink" contentStyleType="text/css" height="499px" preserveAspectRatio="none" style="width:829px;height:499px;background:#FFFFFF;" version="1.1" viewBox="0 0 829 499" width="829px" zoomAndPan="magnify"><defs/><g><line style="stroke:#181818;stroke-width:0.5;stroke-dasharray:5.0,5.0;" x1="32" x2="32" y1="36.2969" y2="464.1563"/><line style="stroke:#181818;stroke-width:0.5;stroke-dasharray:5.0,5.0;" x1="792.3491" x2="792.3491" y1="36.2969" y2="464.1563"/><rect fill="#E2E2F0" height="30.2969" rx="2.5" ry="2.5" style="stroke:#181818;stroke-width:0.5;" width="54.5303" x="5" y="5"/><text fill="#000000" font-family="sans-serif" font-size="14" lengthAdjust="spacing" textLength="40.5303" x="12" y="24.9951">Client</text><rect fill="#E2E2F0" height="30.2969" rx="2.5" ry="2.5" style="stroke:#181818;stroke-width:0.5;" width="54.5303" x="5" y="463.1563"/><text fill="#000000" font-family="sans-serif" font-size="14" lengthAdjust="spacing" textLength="40.5303" x="12" y="483.1514">Client</text><rect fill="#E2E2F0" height="30.2969" rx="2.5" ry="2.5" style="stroke:#181818;stroke-width:0.5;" width="59.9102" x="763.3491" y="5"/><text fill="#000000" font-family="sans-serif" font-size="14" lengthAdjust="spacing" textLength="45.9102" x="770.3491" y="24.9951">Server</text><rect fill="#E2E2F0" height="30.2969" rx="2.5" ry="2.5" style="stroke:#181818;stroke-width:0.5;" width="59.9102" x="763.3491" y="463.1563"/><text fill="#000000" font-family="sans-serif" font-size="14" lengthAdjust="spacing" textLength="45.9102" x="770.3491" y="483.1514">Server</text><polygon fill="#181818" points="781.3042,63.4297,791.3042,67.4297,781.3042,71.4297,785.3042,67.4297" style="stroke:#181818;stroke-width:1.0;"/><line style="stroke:#181818;stroke-width:1.0;" x1="32.2651" x2="787.3042" y1="67.4297" y2="67.4297"/><text fill="#000000" font-family="sans-serif" font-size="13" lengthAdjust="spacing" textLength="143.5713" x="39.2651" y="62.3638">GET /ws?token=token</text><polygon fill="#181818" points="43.2651,92.5625,33.2651,96.5625,43.2651,100.5625,39.2651,96.5625" style="stroke:#181818;stroke-width:1.0;"/><line style="stroke:#181818;stroke-width:1.0;" x1="37.2651" x2="792.3042" y1="96.5625" y2="96.5625"/><text fill="#000000" font-family="sans-serif" font-size="13" lengthAdjust="spacing" textLength="227.5444" x="49.2651" y="91.4966">WebSocket connection established</text><polygon fill="#181818" points="781.3042,121.6953,791.3042,125.6953,781.3042,129.6953,785.3042,125.6953" style="stroke:#181818;stroke-width:1.0;"/><line style="stroke:#181818;stroke-width:1.0;" x1="32.2651" x2="787.3042" y1="125.6953" y2="125.6953"/><text fill="#000000" font-family="sans-serif" font-size="13" lengthAdjust="spacing" textLength="546.9458" x="39.2651" y="120.6294">{"type": "system", "payload": {"type": "open_chat_new", "agentId": "agent_uuid"}}</text><polygon fill="#181818" points="43.2651,150.8281,33.2651,154.8281,43.2651,158.8281,39.2651,154.8281" style="stroke:#181818;stroke-width:1.0;"/><line style="stroke:#181818;stroke-width:1.0;" x1="37.2651" x2="792.3042" y1="154.8281" y2="154.8281"/><text fill="#000000" font-family="sans-serif" font-size="13" lengthAdjust="spacing" textLength="289.9292" x="49.2651" y="149.7622">{"type": "chat_open", "chatId": "chat_uuid"}</text><polygon fill="#181818" points="781.3042,179.9609,791.3042,183.9609,781.3042,187.9609,785.3042,183.9609" style="stroke:#181818;stroke-width:1.0;"/><line style="stroke:#181818;stroke-width:1.0;" x1="32.2651" x2="787.3042" y1="183.9609" y2="183.9609"/><text fill="#000000" font-family="sans-serif" font-size="13" lengthAdjust="spacing" textLength="263.853" x="39.2651" y="178.895">{"type": "chat", "text": "message_text"}</text><polygon fill="#181818" points="43.2651,209.0938,33.2651,213.0938,43.2651,217.0938,39.2651,213.0938" style="stroke:#181818;stroke-width:1.0;"/><line style="stroke:#181818;stroke-width:1.0;" x1="37.2651" x2="792.3042" y1="213.0938" y2="213.0938"/><text fill="#000000" font-family="sans-serif" font-size="13" lengthAdjust="spacing" textLength="34.1567" x="49.2651" y="208.0278">text1</text><polygon fill="#181818" points="43.2651,238.2266,33.2651,242.2266,43.2651,246.2266,39.2651,242.2266" style="stroke:#181818;stroke-width:1.0;"/><line style="stroke:#181818;stroke-width:1.0;" x1="37.2651" x2="792.3042" y1="242.2266" y2="242.2266"/><text fill="#000000" font-family="sans-serif" font-size="13" lengthAdjust="spacing" textLength="34.1567" x="49.2651" y="237.1606">text2</text><polygon fill="#181818" points="43.2651,267.3594,33.2651,271.3594,43.2651,275.3594,39.2651,271.3594" style="stroke:#181818;stroke-width:1.0;"/><line style="stroke:#181818;stroke-width:1.0;" x1="37.2651" x2="792.3042" y1="271.3594" y2="271.3594"/><text fill="#000000" font-family="sans-serif" font-size="13" lengthAdjust="spacing" textLength="34.1567" x="49.2651" y="266.2935">text3</text><polygon fill="#181818" points="781.3042,296.4922,791.3042,300.4922,781.3042,304.4922,785.3042,300.4922" style="stroke:#181818;stroke-width:1.0;"/><line style="stroke:#181818;stroke-width:1.0;" x1="32.2651" x2="787.3042" y1="300.4922" y2="300.4922"/><text fill="#000000" font-family="sans-serif" font-size="13" lengthAdjust="spacing" textLength="398.8232" x="39.2651" y="295.4263">{"type": "system", "payload": {"type": "chat_stop_stream"}}</text><polygon fill="#181818" points="43.2651,325.625,33.2651,329.625,43.2651,333.625,39.2651,329.625" style="stroke:#181818;stroke-width:1.0;"/><line style="stroke:#181818;stroke-width:1.0;" x1="37.2651" x2="792.3042" y1="329.625" y2="329.625"/><text fill="#000000" font-family="sans-serif" font-size="13" lengthAdjust="spacing" textLength="89.7939" x="49.2651" y="324.5591">"##STOP##"</text><polygon fill="#181818" points="43.2651,354.7578,33.2651,358.7578,43.2651,362.7578,39.2651,358.7578" style="stroke:#181818;stroke-width:1.0;"/><line style="stroke:#181818;stroke-width:1.0;" x1="37.2651" x2="792.3042" y1="358.7578" y2="358.7578"/><text fill="#000000" font-family="sans-serif" font-size="13" lengthAdjust="spacing" textLength="737.0391" x="49.2651" y="353.6919">{"type": "finish_event", "chatId": "chat_uuid", "messageId": "message_uuid", "reason": "reason", "content": null}</text><polygon fill="#181818" points="43.2651,383.8906,33.2651,387.8906,43.2651,391.8906,39.2651,387.8906" style="stroke:#181818;stroke-width:1.0;"/><line style="stroke:#181818;stroke-width:1.0;" x1="37.2651" x2="792.3042" y1="387.8906" y2="387.8906"/><text fill="#000000" font-family="sans-serif" font-size="13" lengthAdjust="spacing" textLength="409.3794" x="49.2651" y="382.8247">{"type": "chat_title", "chatId": "chat_uuid", "title": "chat_title"}</text><polygon fill="#181818" points="781.3042,413.0234,791.3042,417.0234,781.3042,421.0234,785.3042,417.0234" style="stroke:#181818;stroke-width:1.0;"/><line style="stroke:#181818;stroke-width:1.0;" x1="32.2651" x2="787.3042" y1="417.0234" y2="417.0234"/><text fill="#000000" font-family="sans-serif" font-size="13" lengthAdjust="spacing" textLength="351.8887" x="39.2651" y="411.9575">{"type": "system", "payload": {"type": "chat_close"}}</text><polygon fill="#181818" points="43.2651,442.1563,33.2651,446.1563,43.2651,450.1563,39.2651,446.1563" style="stroke:#181818;stroke-width:1.0;"/><line style="stroke:#181818;stroke-width:1.0;" x1="37.2651" x2="792.3042" y1="446.1563" y2="446.1563"/><text fill="#000000" font-family="sans-serif" font-size="13" lengthAdjust="spacing" textLength="154.6987" x="49.2651" y="441.0903">{"type": "chat_closed"}</text><!--SRC=[fLB1IiGm4BttAq9wNH7rLb0FieWdXIvuBDbqTCEcIMYcknRflvj9TdM5jYpi9MJUUtapUOaJBIgfd338dhG2WvaxWKfeTz1cYM5N3mUWOC_B5RlU-qUqMp3tSSqIHwgaBzWxh4ihju1CMcD0ehA6WKUnrifle1un_kROE-05uxxt20rVCEv4hwse-Ibh7PXARWHM1lOa4f_1wOL4QLjrdQhvC8oCzUSI3SYA7AX81X5EvsT791sTHFX2gXlmFZIlOZtMcOYR2Vns0h-x8ALu4O_MXQK5qOpdmVEyNBs-vJcV3Uj3cV1g5Um2FfNNuZU4n1mJEP9X26yDCOST-LY3P5amqsbzneEXGWqp4oJ-ltguD4MfhOUp_bDKXg_p0m00]--></g></svg>